<mxfile host="app.diagrams.net" modified="2023-06-11T17:48:23.210Z" agent="Mozilla/5.0 (Windows NT 10.0; Win64; x64) AppleWebKit/537.36 (KHTML, like Gecko) Chrome/114.0.0.0 Safari/537.36 Edg/114.0.1823.43" version="21.3.3" etag="xQopnS96NOpRO0yWySVg" type="github">
  <diagram name="Страница 1" id="AIu-fMeg7ojrGt6GSkAw">
    <mxGraphModel>
      <root>
        <mxCell id="0" />
        <mxCell id="1" parent="0" />
      </root>
    </mxGraphModel>
  </diagram>
</mxfile>
